<svg xmlns="http://www.w3.org/2000/svg" width="27" height="21" fill="none"><path fill="url(#a)" d="m21.624 9.823.004.393c.006.81.534 1.493 1.224 1.565.671.069 1.477.065 2.173.466-.195 1.012-.64 2.299-1.665 3.627-1.555 2.017-3.534 2.552-4.368 2.69H7.824c-.833-.138-2.813-.673-4.367-2.69-1.025-1.328-1.471-2.615-1.666-3.627.697-.401 1.501-.466 2.173-.537.69-.072 1.217-.684 1.224-1.494l.004-.393c-.76-.01-3.073-.386-4.772.974l-.42.336.073.59c.175 1.422.695 3.52 2.168 5.43 1.88 2.44 4.2 3.125 5.418 3.315l11.445.009.053-.01c1.217-.19 3.538-.874 5.42-3.313 1.472-1.91 1.99-4.009 2.166-5.432l.073-.589-.42-.336c-1.084-.868-2.42-1.03-3.443-1.03-.578 0-1.055.052-1.33.056Z"/><path fill="url(#b)" d="M19.956 4.415a9.886 9.886 0 0 0-4.093 1.678c-.95.665-1.845 1.685-2.426 2.419a11.13 11.13 0 0 0-2.485-2.419 9.883 9.883 0 0 0-4.093-1.678l-.928-.146.001 8.985a5.32 5.32 0 0 0 .489 2.462c.375.798.963 1.469 1.655 1.89l.184-.41c.285-.637.237-1.421-.156-1.974a2.82 2.82 0 0 1-.25-.426 3.254 3.254 0 0 1-.286-1.498V6.515a8.535 8.535 0 0 1 2.542 1.216c1.024.718 1.913 1.5 2.645 2.662l.634 1.01.667-.98c.013-.02 1.317-1.757 2.649-2.692a8.5 8.5 0 0 1 2.543-1.216v6.825c.014.356-.026.895-.29 1.456a2.7 2.7 0 0 1-.201.359 2.237 2.237 0 0 0-.169 2.117l.15.334c.693-.421 1.28-1.093 1.655-1.89a5.305 5.305 0 0 0 .49-2.418V4.27l-.927.146Z"/><path fill="url(#c)" d="M13.365 14.65c-.854-2-2.424-4.517-4.91-4.517v1.82c2.187 0 3.49 3.414 3.95 4.883.144.462.535.77.973.77h.007c.441-.003.833-.32.973-.788.436-1.461 1.698-4.865 4-4.865v-1.82c-2.564 0-4.118 2.389-4.993 4.517Z"/><path fill="url(#d)" d="M12.862 1.024c-.156.15-.376.367-.63.64-.582.626-.904.97-1.177 1.477-.19.353-.322.598-.405.892-.095.34-.11.643-.109.848.222.1.792.353 1.521 1.108.014-.483.198-1.494.378-1.83.156-.29.39-.54.9-1.088l.043-.046.042.046c.51.548.743.798.898 1.087.182.338.172 1.349.185 1.831.606-.649 1.406-1.072 1.652-1.166-.022-.825-.113-1.053-.452-1.683-.273-.506-.594-.85-1.176-1.476-.254-.273-.474-.49-.63-.64l-.52-.5-.52.5Z"/><defs><linearGradient id="a" x1="13.408" x2="13.408" y1="20.476" y2="9.768" gradientUnits="userSpaceOnUse"><stop offset="1" stop-color="#fff"/></linearGradient><linearGradient id="b" x1="13.408" x2="13.408" y1="17.607" y2="4.269" gradientUnits="userSpaceOnUse"><stop offset="1" stop-color="#fff"/></linearGradient><linearGradient id="c" x1="13.408" x2="13.408" y1="10.133" y2="17.607" gradientUnits="userSpaceOnUse"><stop offset="1" stop-color="#fff"/></linearGradient><linearGradient id="d" x1="13.351" x2="13.351" y1=".524" y2="5.989" gradientUnits="userSpaceOnUse"><stop offset="1" stop-color="#fff"/></linearGradient></defs></svg>
