<svg xmlns="http://www.w3.org/2000/svg" width="38" height="25" fill="none"><path fill="#3D3D3D" d="m30.644 11.784.005.478c.01.982.757 1.81 1.735 1.898.952.084 2.093.079 3.08.565-.276 1.228-.908 2.79-2.36 4.402-2.203 2.447-5.008 3.097-6.19 3.265H11.088c-1.18-.168-3.987-.818-6.19-3.265-1.452-1.612-2.084-3.174-2.36-4.402.987-.486 2.128-.565 3.079-.65.98-.088 1.726-.83 1.735-1.813l.006-.478c-1.079-.012-4.355-.469-6.763 1.182L0 13.374l.103.715a12.485 12.485 0 0 0 3.073 6.591c2.664 2.959 5.953 3.79 7.678 4.021l16.218.011.076-.01c1.724-.232 5.013-1.062 7.68-4.022 2.086-2.318 2.822-4.864 3.071-6.591l.103-.715-.595-.408c-1.537-1.054-3.43-1.249-4.879-1.249-.82 0-1.496.062-1.884.067Z"/><path fill="#3D3D3D" d="M28.28 5.222a15.39 15.39 0 0 0-5.8 2.036c-1.346.807-2.614 2.045-3.437 2.935a14.954 14.954 0 0 0-3.521-2.935 15.385 15.385 0 0 0-5.8-2.036l-1.316-.177.002 10.903a5.657 5.657 0 0 0 .692 2.987 5.722 5.722 0 0 0 2.346 2.294l.26-.498c.405-.773.337-1.724-.22-2.396a3.354 3.354 0 0 1-.354-.517 3.456 3.456 0 0 1-.406-1.817v-8.23a13.07 13.07 0 0 1 3.603 1.475c1.45.87 2.71 1.82 3.748 3.23l.899 1.225.944-1.19c.018-.024 1.867-2.131 3.754-3.265a13.015 13.015 0 0 1 3.604-1.476v8.282a3.358 3.358 0 0 1-.696 2.202 2.383 2.383 0 0 0-.239 2.57l.213.405a5.711 5.711 0 0 0 2.345-2.294A5.643 5.643 0 0 0 29.596 16V5.045l-1.315.177Z"/><path fill="#3D3D3D" d="M18.94 17.641c-1.21-2.426-3.434-5.48-6.956-5.48v2.208c3.098 0 4.944 4.142 5.595 5.925.206.561.76.935 1.38.935h.01c.625-.004 1.18-.388 1.378-.956.619-1.774 2.408-5.904 5.67-5.904V12.16c-3.634 0-5.836 2.899-7.076 5.481ZM18.228 1.107c-.22.182-.532.445-.892.777-.826.758-1.281 1.177-1.668 1.792-.27.428-.456.726-.574 1.082-.135.414-.155.78-.154 1.029.314.122 1.121.429 2.155 1.345.02-.586.28-1.813.536-2.222.221-.35.551-.655 1.274-1.32l.061-.056.06.056c.722.665 1.053.97 1.273 1.32.258.41.244 1.637.263 2.222.858-.788 1.99-1.301 2.34-1.416-.032-1-.16-1.278-.64-2.042-.387-.613-.842-1.032-1.667-1.791-.36-.331-.671-.594-.893-.776L18.966.5l-.738.607Z"/></svg>
