<svg xmlns="http://www.w3.org/2000/svg" width="23" height="23" fill="none"><g fill="#3D3D3D" fill-rule="evenodd" clip-path="url(#a)" clip-rule="evenodd"><path d="M10.748 2.627c3.143-.178 5.728.925 7.756 3.309a9.788 9.788 0 0 1 1.74 3.652c1.315-.011 2.045.64 2.192 1.955-.157 1.346-.909 1.998-2.256 1.955-.76 2.932-2.53 5.002-5.306 6.209-3.007 1.093-5.843.764-8.508-.988-1.808-1.302-2.968-3.042-3.48-5.221-1.005.118-1.742-.27-2.214-1.16-.307-.871-.142-1.638.494-2.299a2.049 2.049 0 0 1 1.676-.451c.67-2.884 2.347-4.953 5.028-6.21a10.175 10.175 0 0 1 2.878-.751Zm.645.773c1.323.17 1.917.914 1.783 2.235-.233.627-.684.97-1.353 1.031-.703-.051-1.09-.431-1.16-1.139.08-.582.41-.869.988-.86.288.125.38.333.28.624a3.2 3.2 0 0 1-.56.43c-.125.34-.01.54.344.601.76-.216 1.104-.718 1.031-1.504-.255-.719-.764-1.026-1.525-.923-.847.226-1.291.777-1.332 1.654.106 1.173.744 1.803 1.912 1.89.854-.018 1.498-.39 1.934-1.117.274-.547.346-1.12.215-1.719a7.043 7.043 0 0 0-.387-.945c2.485.71 4.29 2.228 5.414 4.555.279.65.48 1.323.602 2.02.052.095.131.16.236.193.222-.004.444-.025.666-.065.719.082 1.113.483 1.182 1.203-.069.72-.463 1.121-1.182 1.204a2.432 2.432 0 0 1-.58-.13.706.706 0 0 0-.322.172c-.636 3.013-2.376 5.097-5.221 6.252-3.215 1.03-6.065.415-8.55-1.847a8.845 8.845 0 0 1-2.343-4.49.705.705 0 0 0-.3-.13c-.629.325-1.173.21-1.633-.343-.353-.67-.232-1.236.365-1.697.418-.248.84-.255 1.268-.022a.479.479 0 0 0 .3-.172c.481-2.555 1.82-4.51 4.018-5.865a8.885 8.885 0 0 1 3.91-1.096Z" opacity=".935"/><path d="M7.783 8.686c1.096-.04 1.712.483 1.848 1.568-.058.358-.258.473-.602.344a.495.495 0 0 1-.15-.194c-.052-.697-.417-.99-1.096-.88-.349.203-.528.51-.537.923-.212.269-.442.283-.687.043-.122-.623.071-1.131.58-1.525.209-.12.424-.212.644-.28Z" opacity=".924"/><path d="M14.486 8.686c.93-.056 1.524.36 1.784 1.246.028.186.028.372 0 .558-.244.24-.473.227-.688-.043 0-.56-.272-.89-.816-.988-.532.088-.804.403-.817.945-.182.28-.411.323-.687.13-.17-.807.123-1.387.88-1.741.121-.034.236-.07.345-.107Z" opacity=".925"/><path d="M8.986 12.725c1.647-.008 3.294 0 4.941.021.108.05.186.129.237.236-.013 1.422-.693 2.36-2.041 2.815-1.459.262-2.526-.26-3.202-1.569a2.428 2.428 0 0 1-.171-1.288.536.536 0 0 1 .236-.215Zm.515.816c.196.704.64 1.184 1.333 1.44 1.274.257 2.12-.23 2.535-1.461a58.133 58.133 0 0 0-3.868.021Z" opacity=".945"/></g><defs><clipPath id="a"><path fill="#fff" d="M.5.5h22v22H.5z"/></clipPath></defs></svg>