<svg xmlns="http://www.w3.org/2000/svg" width="213" height="25" fill="currentColor"><path fill="url(#a)" d="m30.644 11.284.005.477c.01.983.757 1.811 1.735 1.899.952.084 2.093.079 3.08.565-.276 1.228-.908 2.79-2.36 4.402-2.203 2.447-5.008 3.097-6.19 3.265H11.088c-1.18-.168-3.987-.818-6.19-3.265-1.452-1.612-2.084-3.174-2.36-4.402.987-.486 2.128-.565 3.079-.65.98-.088 1.726-.83 1.735-1.813l.006-.478c-1.079-.012-4.355-.469-6.763 1.182L0 12.874l.103.715a12.484 12.484 0 0 0 3.073 6.59c2.664 2.96 5.953 3.791 7.678 4.022l16.218.01.076-.01c1.724-.23 5.013-1.061 7.68-4.021 2.086-2.318 2.822-4.864 3.071-6.591l.103-.715-.595-.408c-1.537-1.054-3.43-1.249-4.879-1.249-.82 0-1.496.062-1.884.067Z"/><path fill="url(#b)" d="M28.28 4.721a15.39 15.39 0 0 0-5.8 2.037c-1.346.807-2.614 2.044-3.437 2.934a14.954 14.954 0 0 0-3.521-2.934 15.385 15.385 0 0 0-5.8-2.037l-1.316-.176.002 10.903a5.657 5.657 0 0 0 .692 2.987 5.722 5.722 0 0 0 2.346 2.294l.26-.498c.405-.773.337-1.725-.22-2.396a3.355 3.355 0 0 1-.354-.517 3.456 3.456 0 0 1-.406-1.817V7.27a13.07 13.07 0 0 1 3.603 1.476c1.45.87 2.71 1.819 3.748 3.23l.899 1.225.944-1.19c.018-.024 1.867-2.131 3.754-3.265a13.015 13.015 0 0 1 3.604-1.476v8.282a3.358 3.358 0 0 1-.696 2.202 2.383 2.383 0 0 0-.239 2.57l.213.404a5.711 5.711 0 0 0 2.345-2.293 5.643 5.643 0 0 0 .695-2.934V4.545l-1.315.176Z"/><path fill="url(#c)" d="M18.94 17.141c-1.21-2.426-3.434-5.481-6.956-5.481v2.209c3.098 0 4.944 4.142 5.595 5.925.206.56.76.934 1.38.934h.01c.625-.003 1.18-.387 1.378-.955.619-1.774 2.408-5.904 5.67-5.904v-2.21c-3.634 0-5.836 2.9-7.076 5.482Z"/><path fill="url(#d)" d="M18.228.607c-.22.182-.532.445-.892.777-.826.759-1.281 1.177-1.668 1.792-.27.428-.456.726-.574 1.082-.135.414-.155.78-.154 1.03.314.12 1.121.428 2.155 1.344.02-.586.28-1.813.536-2.222.221-.35.551-.654 1.274-1.32l.061-.056.06.056c.722.666 1.053.97 1.273 1.32.258.41.244 1.637.263 2.222.858-.787 1.99-1.301 2.34-1.416-.032-1-.16-1.278-.64-2.042-.387-.613-.842-1.031-1.667-1.791-.36-.33-.671-.594-.893-.776L18.966 0l-.738.607Z"/><path fill="#fff" d="M170.248 5.891v2.567h3.378v.596h-3.378v2.772h-.69V5.293h4.479v.598h-3.789ZM180.868 9.52 179.3 6.013l-1.568 3.509h3.136Zm.252.561h-3.64l-.784 1.745h-.717l2.986-6.532h.681l2.986 6.532h-.728l-.784-1.745ZM192.364 5.294v6.532h-.662V6.6l-2.566 4.396h-.327l-2.566-4.368v5.198h-.662V5.294h.568l2.838 4.843 2.808-4.843h.569ZM196.358 5.294h.691v6.532h-.691V5.294ZM201.043 5.294h.69v5.934h3.658v.598h-4.348V5.294ZM209.955 9.568v2.258h-.681V9.568l-2.613-4.274h.737l2.24 3.668 2.24-3.668h.69l-2.613 4.274ZM176.025 17.467 173.132 24h-.681l-2.893-6.533h.747l2.5 5.674 2.52-5.674h.7ZM178.833 17.467h.691V24h-.691v-6.533ZM183.519 17.467h.69v5.935h3.657V24h-4.347v-6.533ZM190.881 17.467h.69v5.935h3.659V24h-4.349v-6.533ZM202.106 21.694l-1.567-3.508-1.568 3.508h3.135Zm.253.56h-3.64L197.935 24h-.718l2.986-6.532h.682L203.87 24h-.727l-.784-1.746ZM207.225 23.822c-.445-.155-.788-.36-1.031-.616l.27-.532c.237.237.551.428.943.574.392.146.796.22 1.213.22.584 0 1.024-.108 1.316-.322.292-.215.439-.494.439-.836 0-.26-.08-.47-.238-.625a1.628 1.628 0 0 0-.583-.36 9.55 9.55 0 0 0-.962-.274 10.352 10.352 0 0 1-1.176-.36 1.944 1.944 0 0 1-.751-.527c-.208-.236-.313-.556-.313-.96 0-.33.088-.631.262-.902.174-.27.442-.486.802-.648.361-.162.809-.242 1.344-.242.374 0 .739.05 1.096.154.358.102.668.243.929.424l-.234.55a3.204 3.204 0 0 0-.877-.405 3.24 3.24 0 0 0-.914-.135c-.572 0-1.003.11-1.293.33-.289.221-.433.507-.433.854 0 .262.08.472.238.63.158.16.357.28.597.364.24.084.561.176.965.275.48.119.867.235 1.163.35.295.116.546.29.75.523.206.233.308.548.308.946 0 .33-.088.63-.266.902-.176.27-.449.485-.815.643-.368.16-.819.238-1.354.238-.485 0-.951-.077-1.395-.233ZM44.352 24.15c-.017-1.208-.043-3.232-.068-4.417-.078-3.63.038-11 .038-11-.055-4.004 4.764-5.997 7.565-3.306 1.382 1.327 1.79 1.69 2.698 2.672.935 1.011 1.15 1.19 2.067 2.008.154.105.499.313.857-.018.986-.921 1.572-1.537 2.491-2.422 1.105-1.062 2.33-2.344 2.33-2.344 1.62-1.669 7.138-1.86 7.45 3.382l-1.833.07c-.94.038-1.44-.035-2.343-.866-.254-.234-.494-.23-.742.049-.802.876-1.252 1.335-2.008 2.247-.947 1.144-1.37 1.476-2.55 2.646-2.379 2.36-5.215 1.05-5.872.493-1.428-1.208-1.796-1.465-2.898-2.69-.83-.92-1.645-1.588-2.374-2.381-.282-.306-.889-.258-.884.402-.137 3.454-.09 7.461-.015 10.973.026 1.195.051 3.227.068 4.445l-3.977.056ZM116.921 24.262h-3.978v-9.69a3.978 3.978 0 0 1 3.978-3.978v13.668ZM123.84 9.172h-17.817V5.194h17.817v3.978ZM88.064 25c-3.054 0-6.092-1.199-8.541-3.484l-.05-.047c-3.37-3.37-2.742-7.81-2.944-11.728-.098-1.9-.018-3.372-.098-4.546h4.117c.01 1.522.003 3.002-.047 4.748-.094 3.381-.333 6.569 1.762 8.69 2.503 2.318 5.853 3.005 8.758 1.794 1.138-.521 3.142-1.747 3.986-4.146l3.752 1.321c-.993 2.822-3.165 5.116-6.117 6.458l-.052.023a11.638 11.638 0 0 1-4.526.917ZM69.77 24.16h-3.977v-9.588a3.978 3.978 0 0 1 3.978-3.978V24.16Z"/><path fill="#fff" d="M94.782 15.063V5.194h3.978v5.89a3.978 3.978 0 0 1-3.978 3.977ZM154.928 4.99h-1.199V1.012h4.419v.758c0 1.78-1.441 3.22-3.22 3.22ZM139.711 24.262h-3.978v-9.69a3.978 3.978 0 0 1 3.978-3.978v13.668ZM146.631 9.172h-17.818V5.194h17.818v3.978ZM157.828 24.262h-3.977V6.763h3.977v17.499Z"/><defs><linearGradient id="a" x1="19.001" x2="19.001" y1="24.212" y2="11.217" gradientUnits="userSpaceOnUse"><stop offset="1" stop-color="#fff"/></linearGradient><linearGradient id="b" x1="19.002" x2="19.002" y1="20.729" y2="4.544" gradientUnits="userSpaceOnUse"><stop offset="1" stop-color="#fff"/></linearGradient><linearGradient id="c" x1="19.001" x2="19.001" y1="11.66" y2="20.729" gradientUnits="userSpaceOnUse"><stop offset="1" stop-color="#fff"/></linearGradient><linearGradient id="d" x1="18.921" x2="18.921" y1="0" y2="6.632" gradientUnits="userSpaceOnUse"><stop offset="1" stop-color="#fff"/></linearGradient></defs></svg>
