<svg xmlns="http://www.w3.org/2000/svg" width="21" height="21" fill="none"><g fill="#3D3D3D" fill-rule="evenodd" clip-path="url(#a)" clip-rule="evenodd"><path d="M15.246.559a2.006 2.006 0 0 1 1.484.37 6.016 6.016 0 0 1 1.465 1.778 18.492 18.492 0 0 1 2.188 8.398c-.34 2.019-1.478 3.354-3.418 4.004-.333.097-.671.155-1.016.176v5.117h-.703v-5.117c-2.038-.234-3.438-1.302-4.2-3.203a4.722 4.722 0 0 1-.253-1.621 20.448 20.448 0 0 1 1.699-6.738c.341-.775.77-1.49 1.29-2.149.39-.49.878-.828 1.464-1.015Zm.156.664c.415-.02.78.103 1.094.37A7.015 7.015 0 0 1 18 3.802a20.943 20.943 0 0 1 1.719 6.172c.126 1.837-.597 3.224-2.168 4.16-.502.25-1.03.412-1.582.488a87.95 87.95 0 0 1 0-3.71c.495-.49.983-.985 1.464-1.485a3.99 3.99 0 0 0-.468-.469c-.338.318-.67.644-.996.977-.02-.573-.026-1.146-.02-1.72h-.703c.006 1.433 0 2.865-.02 4.298l-1.015-1.016a3.955 3.955 0 0 0-.45.488c.474.513.962 1.014 1.465 1.504.026.378.026.755 0 1.133-2.017-.324-3.254-1.483-3.71-3.476-.077-.6-.064-1.2.039-1.797a20.692 20.692 0 0 1 2.03-6.29 5.732 5.732 0 0 1 1.075-1.425c.228-.179.475-.316.742-.41Z" opacity=".928"/><path d="M1.184 14.934h.664v.664h7.656v-.664h.664V18.8h.664v.664h-.664v.937h-.664v-.937H1.848v.937h-.664v-.937H.559V18.8h.625v-3.867Zm.664 1.328h7.656v.937H1.848v-.937Zm0 1.601h7.656v.938H1.848v-.938Z" opacity=".965"/></g><defs><clipPath id="a"><path fill="#fff" d="M.5.5h20v20H.5z"/></clipPath></defs></svg>