<svg xmlns="http://www.w3.org/2000/svg" width="21" height="17" fill="none"><g fill="#000" fill-rule="evenodd" clip-path="url(#a)" clip-rule="evenodd"><path d="M12.75 1.06c.425-.012.594.15.506.485-.153.191-.363.24-.628.146-.153-.121-.2-.267-.142-.437a.44.44 0 0 1 .263-.195Z" opacity=".896"/><path d="M.104 10.202V9.91a.473.473 0 0 1 .284-.178c2.704-.499 4.514-1.795 5.43-3.89-.496.209-1.009.403-1.54.583a11.93 11.93 0 0 1-3.93.551.617.617 0 0 1-.244-.178v-.292a.473.473 0 0 1 .284-.178c2.209-.006 4.174-.551 5.897-1.638.708-1.463 1.958-2.517 3.749-3.16.302-.106.612-.193.932-.26.304-.027.48.081.527.324a.401.401 0 0 1-.122.26C9.39 2.326 7.977 3.314 7.136 4.82c-.25.571-.493 1.144-.73 1.718C5.273 8.64 3.307 9.926.51 10.397c-.188 0-.323-.064-.406-.195Z" opacity=".941"/><path d="M20.855 7.446v.292a.616.616 0 0 1-.243.178 5.237 5.237 0 0 0-2.31.714c-1.82 1.503-3.928 1.827-6.322.972-1.808-.833-2.558-2.081-2.25-3.744.19-.72.615-1.33 1.277-1.832.98-.579 2.006-.643 3.08-.195.728.477.951 1.076.669 1.8-.11.195-.252.374-.426.535-.21.133-.44.24-.689.324.92.201 1.67.001 2.25-.6.69-.777.81-1.61.364-2.496A3.298 3.298 0 0 0 15.1 2.307c-.26-.128-.523-.252-.79-.372-.173-.381-.004-.56.506-.535 2.132.855 2.91 2.211 2.33 4.069-.712 1.46-2.016 2.006-3.91 1.637-.678-.232-1.11-.631-1.297-1.2.061-.276.264-.384.608-.324.462.337.9.321 1.317-.049.317-.557.135-.973-.547-1.248-1.067-.176-1.857.12-2.37.892-.58.935-.566 1.865.04 2.788.943 1.034 2.22 1.504 3.83 1.41.853-.082 1.61-.341 2.269-.778.901-.792 2.022-1.241 3.364-1.345a.567.567 0 0 1 .405.194Z" opacity=".944"/><path d="M7.238 8.484c.244-.042.44.012.588.162.06 1.227.823 2.01 2.29 2.35.276.02.546.057.81.114.224.2.21.389-.04.567-1.714.058-2.923-.542-3.628-1.8a2.016 2.016 0 0 1-.202-1.231c.055-.06.116-.115.182-.162Z" opacity=".939"/><path d="M20.855 9.78v.163c-.048.06-.102.12-.162.178-.536.31-1.036.655-1.5 1.038-1.39.871-2.97 1.282-4.741 1.232-.258-.141-.306-.32-.142-.535a.29.29 0 0 1 .142-.081c1.475-.016 2.813-.361 4.012-1.038.43-.29.85-.593 1.256-.908l.527-.292c.302-.064.505.017.608.244Z" opacity=".938"/><path d="M20.855 14.58v.323c-1.054.852-2.324 1.16-3.81.924-.85-.172-1.565-.518-2.148-1.037-1.283-.713-2.567-.713-3.85 0-1.331 1.108-2.899 1.389-4.701.843a4.843 4.843 0 0 1-1.419-.843c-1.11-.633-2.272-.698-3.485-.195a2.756 2.756 0 0 0-.608.39c-.273.15-.516.123-.73-.082v-.324c1.312-1.008 2.825-1.252 4.54-.73.236.1.466.209.689.325l1.013.68c1.56.632 2.938.438 4.133-.583 1.278-.746 2.655-.887 4.134-.421.237.1.466.208.69.324l1.012.68c1.438.603 2.748.463 3.932-.42.25-.057.452-.009.608.145Z" opacity=".942"/></g><defs><clipPath id="a"><path fill="#fff" d="M.125.2h20.75v16.6H.125z"/></clipPath></defs></svg>