<svg xmlns="http://www.w3.org/2000/svg" width="23" height="23" fill="none"><path fill="#3D3D3D" fill-rule="evenodd" d="M6.408 4.13a7.673 7.673 0 0 1 4.34.839c.249.156.493.32.73.494a6.426 6.426 0 0 1 3.438-1.31 12.12 12.12 0 0 1 3.222.214c.63.078.86.43.688 1.053.417.05.832.115 1.246.193.093.036.157.1.193.194.043 4.057.029 8.11-.043 12.16a.37.37 0 0 1-.322.129 18.967 18.967 0 0 0-4.426-.323 6.587 6.587 0 0 0-1.246.215c-.649.232-1.293.475-1.934.73a3.157 3.157 0 0 1-1.632 0c-.59-.22-1.178-.45-1.762-.687a10.063 10.063 0 0 0-3.266-.258 32.71 32.71 0 0 0-2.578.323.37.37 0 0 1-.322-.13 431.73 431.73 0 0 1-.043-12.16.323.323 0 0 1 .193-.193c.415-.073.83-.138 1.246-.193-.007-.23 0-.459.022-.688a.495.495 0 0 1 .15-.193c.69-.23 1.391-.365 2.106-.408Zm.043.774c1.708-.176 3.248.24 4.619 1.246.036 3.338.029 6.675-.022 10.012-1.427-.86-2.974-1.196-4.64-1.01a8.5 8.5 0 0 0-1.461.194c-.05-3.395-.057-6.79-.022-10.184a10.809 10.809 0 0 1 1.526-.258Zm8.55 0h.86c.007 1.017 0 2.034-.022 3.051l-.45-.451a.644.644 0 0 0-.43-.043l-.495.494a102.46 102.46 0 0 1-.021-2.965c.194-.011.38-.04.559-.086Zm1.633.043c.476.019.941.09 1.397.215.036 3.395.029 6.79-.022 10.184a11.013 11.013 0 0 0-4.168-.022 7.097 7.097 0 0 0-1.933.838c-.05-3.337-.057-6.674-.022-10.012a5.404 5.404 0 0 1 1.74-.945c.023 1.321.059 2.639.108 3.953a.518.518 0 0 0 .494.108c.321-.278.629-.572.924-.881l.838.838c.137.063.28.078.43.043a.35.35 0 0 0 .193-.237c.021-1.36.029-2.721.021-4.082ZM4.044 6.193c.065 3.298.115 6.607.15 9.926a.37.37 0 0 0 .323.13 10.245 10.245 0 0 1 4.082-.237 5.43 5.43 0 0 1 2.578 1.246c.2.143.401.143.602 0 1.143-.942 2.46-1.393 3.953-1.354a10.03 10.03 0 0 1 2.707.344.37.37 0 0 0 .322-.129c.05-3.305.086-6.614.108-9.926.198.042.399.078.601.108.043 3.642.058 7.287.043 10.935A18.743 18.743 0 0 0 15.388 17c-.449.04-.893.111-1.332.215-.696.234-1.384.491-2.062.773a2.093 2.093 0 0 1-1.031 0 46.318 46.318 0 0 1-1.762-.687A10.916 10.916 0 0 0 5.548 17c-.704.061-1.406.14-2.105.236-.007-3.638 0-7.276.021-10.914.2-.037.392-.08.58-.129Z" clip-rule="evenodd" opacity=".945"/></svg>