<svg xmlns="http://www.w3.org/2000/svg" width="17" height="17" fill="none"><g fill="#000" fill-rule="evenodd" clip-path="url(#a)" clip-rule="evenodd"><path d="M3.038-.017h.764C4.816.24 5.43.882 5.644 1.91c.017.62.022 1.24.017 1.86h6.275a20.208 20.208 0 0 0-.05-1.926C11.65 1.097 11.142.699 10.36.647c-1.012.128-1.544.703-1.594 1.727-.174.232-.373.254-.597.066-.112-.944.237-1.67 1.046-2.174.245-.132.5-.226.763-.283h.764c.992.223 1.606.832 1.843 1.827.049 3.74.066 7.48.05 11.222a7.204 7.204 0 0 0 2.722-.548c.404-.185.802-.379 1.196-.58a.53.53 0 0 1 .431.232v.199a.88.88 0 0 1-.166.216c-2.175 1.257-4.466 1.511-6.873.764a32.73 32.73 0 0 0-3.719-.963c-1.788-.278-3.448.065-4.98 1.029l-.631.431c-.2.127-.383.11-.548-.05a.42.42 0 0 1 .067-.464A8.618 8.618 0 0 1 3.9 11.654c.364-.046.73-.074 1.096-.083.005-3.132 0-6.264-.017-9.396-.117-.93-.643-1.44-1.577-1.528-.716.05-1.209.405-1.477 1.063-.057.23-.101.463-.133.697-.168.19-.356.213-.565.067-.123-.954.225-1.69 1.046-2.208.245-.132.5-.226.764-.283Zm2.623 4.45h6.275v3.52H5.661v-3.52Zm0 4.216h6.309V13c-.481-.054-.957-.137-1.428-.249a69.336 69.336 0 0 0-3.22-.896c-.548-.134-1.101-.228-1.661-.283V8.65Z" opacity=".945"/><path d="M.448 16.983H.183a.942.942 0 0 1-.2-.265v-.166a1.13 1.13 0 0 1 .133-.216 9.082 9.082 0 0 1 3.52-1.594 8.87 8.87 0 0 1 3.32.1c1.296.349 2.591.703 3.885 1.062a7.198 7.198 0 0 0 4.549-.332l1.162-.58c.276.037.392.192.348.464a.467.467 0 0 1-.149.216c-1.71 1.021-3.547 1.364-5.512 1.03a20.76 20.76 0 0 1-1.593-.366 28.933 28.933 0 0 0-3.62-.93 6.808 6.808 0 0 0-4.482.864c-.371.233-.736.47-1.096.713Z" opacity=".946"/></g><defs><clipPath id="a"><path fill="#fff" d="M0 0h17v17H0z"/></clipPath></defs></svg>