<svg xmlns="http://www.w3.org/2000/svg" width="52" height="78" fill="none"><g clip-path="url(#a)"><path fill="#4B0081" d="M26 71.244c-1.224-1.535-2.141-3.07-3.059-4.606-4.588-7.063-9.176-14.433-12.847-21.803-1.835-3.685-3.67-7.37-4.588-11.363-1.53-5.22-.918-10.133 1.223-14.433 3.365-6.756 8.565-10.44 15.906-11.976 11.318-2.15 22.635 6.142 24.777 17.504.611 3.685 0 7.063-1.224 10.44-1.835 5.528-4.588 11.056-7.647 16.276a330.73 330.73 0 0 1-11.93 19.347c-.305 0-.305.307-.611.614Z"/><path fill="url(#b)" d="m33.993 26.628.003.316c.007.65.499 1.197 1.143 1.255.626.055 1.377.052 2.027.374-.182.811-.598 1.844-1.553 2.91-1.45 1.617-3.297 2.046-4.075 2.157H21.12c-.777-.11-2.623-.54-4.073-2.157-.956-1.066-1.373-2.099-1.554-2.91.65-.322 1.4-.374 2.027-.43.644-.059 1.136-.55 1.142-1.199l.003-.316c-.71-.007-2.866-.31-4.451.782l-.392.27.068.472a8.268 8.268 0 0 0 2.023 4.357c1.753 1.956 3.918 2.505 5.054 2.658l10.675.007.05-.007c1.135-.153 3.3-.702 5.055-2.658a8.28 8.28 0 0 0 2.021-4.357l.068-.473-.391-.27c-1.012-.696-2.258-.825-3.212-.825-.54 0-.984.041-1.24.044Z"/><path fill="url(#c)" d="M32.438 22.29a10.1 10.1 0 0 0-3.817 1.347c-.887.533-1.721 1.351-2.263 1.94a9.852 9.852 0 0 0-2.318-1.94 10.097 10.097 0 0 0-3.818-1.346l-.866-.117.002 7.207c-.023.48.038 1.212.455 1.974.35.64.898 1.179 1.544 1.516l.172-.329c.266-.51.221-1.14-.146-1.583a2.214 2.214 0 0 1-.232-.342 2.293 2.293 0 0 1-.268-1.201v-5.44a8.58 8.58 0 0 1 2.372.975c.954.575 1.784 1.202 2.467 2.135l.592.81.621-.787c.012-.016 1.229-1.409 2.47-2.159a8.548 8.548 0 0 1 2.373-.975v5.475a2.227 2.227 0 0 1-.458 1.455 1.58 1.58 0 0 0-.157 1.699l.14.267a3.742 3.742 0 0 0 2.001-3.455v-7.242l-.866.117Z"/><path fill="url(#d)" d="M26.29 30.5c-.797-1.604-2.261-3.623-4.58-3.623v1.46c2.04 0 3.255 2.738 3.684 3.917.135.37.5.617.908.617h.006a.96.96 0 0 0 .908-.631c.407-1.173 1.585-3.903 3.732-3.903v-1.46c-2.392 0-3.842 1.916-4.658 3.623Z"/><path fill="url(#e)" d="M25.821 19.57c-.145.12-.35.295-.588.514-.543.502-.843.778-1.097 1.185-.178.283-.3.48-.378.715-.09.273-.102.516-.102.68.207.08.739.284 1.42.89.012-.388.183-1.2.352-1.47.145-.231.363-.432.838-.872l.04-.037.04.037c.475.44.693.64.838.872.17.271.16 1.082.173 1.47.565-.521 1.31-.86 1.54-.937-.02-.66-.105-.844-.42-1.35-.255-.405-.555-.681-1.098-1.183a13.926 13.926 0 0 0-.588-.514l-.484-.4-.486.4Z"/></g><defs><linearGradient id="b" x1="26.329" x2="26.329" y1="35.174" y2="26.584" gradientUnits="userSpaceOnUse"><stop offset="1" stop-color="#fff"/></linearGradient><linearGradient id="c" x1="26.331" x2="26.331" y1="32.872" y2="22.173" gradientUnits="userSpaceOnUse"><stop offset="1" stop-color="#fff"/></linearGradient><linearGradient id="d" x1="26.33" x2="26.33" y1="26.877" y2="32.872" gradientUnits="userSpaceOnUse"><stop offset="1" stop-color="#fff"/></linearGradient><linearGradient id="e" x1="26.277" x2="26.277" y1="19.169" y2="23.553" gradientUnits="userSpaceOnUse"><stop offset="1" stop-color="#fff"/></linearGradient><clipPath id="a"><path fill="#fff" d="M0 0h52v78H0z"/></clipPath></defs></svg>
