<svg xmlns="http://www.w3.org/2000/svg" width="220" height="30" fill="none"><g fill="#4B0081" clip-path="url(#a)"><path d="m30.644 11.784.005.478a1.92 1.92 0 0 0 1.735 1.898c.952.084 2.093.079 3.08.565-.276 1.228-.908 2.79-2.36 4.402-2.203 2.447-5.008 3.097-6.19 3.265H11.088c-1.18-.168-3.987-.818-6.19-3.265-1.452-1.612-2.084-3.174-2.36-4.402.987-.486 2.128-.565 3.079-.65.98-.088 1.726-.83 1.735-1.813l.006-.478c-1.079-.012-4.355-.469-6.763 1.182L0 13.374l.103.715a12.485 12.485 0 0 0 3.073 6.591c2.664 2.959 5.953 3.79 7.678 4.021l16.218.011.076-.01c1.724-.232 5.013-1.062 7.68-4.022a12.498 12.498 0 0 0 3.071-6.591l.103-.715-.595-.408c-1.537-1.054-3.43-1.249-4.879-1.249-.82 0-1.496.062-1.884.067Z"/><path d="M28.28 5.222a15.39 15.39 0 0 0-5.8 2.036c-1.346.807-2.614 2.045-3.437 2.935a14.953 14.953 0 0 0-3.521-2.935 15.385 15.385 0 0 0-5.8-2.036l-1.316-.177.002 10.903a5.657 5.657 0 0 0 .692 2.987 5.722 5.722 0 0 0 2.346 2.294l.26-.498c.405-.773.337-1.724-.22-2.396a3.351 3.351 0 0 1-.354-.517 3.456 3.456 0 0 1-.406-1.817v-8.23a13.07 13.07 0 0 1 3.603 1.475c1.45.87 2.71 1.82 3.748 3.23l.899 1.225.944-1.19c.018-.024 1.867-2.131 3.754-3.265a13.016 13.016 0 0 1 3.604-1.476v8.282a3.358 3.358 0 0 1-.696 2.202 2.384 2.384 0 0 0-.239 2.57l.213.405a5.711 5.711 0 0 0 2.345-2.294A5.643 5.643 0 0 0 29.596 16V5.045l-1.316.177Z"/><path d="M18.94 17.641c-1.21-2.426-3.434-5.48-6.956-5.48v2.208c3.098 0 4.944 4.142 5.595 5.925.206.561.76.935 1.38.935h.01c.625-.004 1.18-.388 1.378-.956.619-1.774 2.408-5.904 5.67-5.904V12.16c-3.634 0-5.837 2.899-7.077 5.481Zm-.712-16.534c-.22.182-.532.445-.892.777-.826.758-1.281 1.177-1.668 1.792-.27.428-.456.726-.574 1.082-.135.414-.155.78-.154 1.029.314.122 1.121.429 2.155 1.345.02-.586.28-1.813.536-2.222.221-.35.551-.655 1.274-1.32l.061-.056.06.056c.722.665 1.053.97 1.273 1.32.258.41.244 1.637.263 2.222.858-.788 1.99-1.301 2.34-1.416-.032-1-.16-1.278-.64-2.042-.387-.613-.842-1.032-1.667-1.791a20.91 20.91 0 0 0-.893-.776L18.966.5l-.738.607Zm152.02 5.284v2.567h3.378v.596h-3.378v2.772h-.69V5.793h4.479v.598h-3.789Zm10.62 3.63-1.569-3.509-1.567 3.509h3.136Zm.252.56h-3.64l-.784 1.745h-.718l2.986-6.532h.681l2.986 6.532h-.727l-.784-1.745Zm11.244-4.787v6.532h-.663V7.1l-2.566 4.396h-.326l-2.566-4.368v5.198h-.663V5.794h.569l2.838 4.843 2.808-4.843h.569Zm3.994 0h.691v6.532h-.691V5.794Zm4.685 0h.69v5.934h3.658v.598h-4.348V5.794Zm8.912 4.274v2.258h-.681v-2.258l-2.614-4.274h.738l2.24 3.668 2.239-3.668h.691l-2.613 4.274Zm-33.93 7.899-2.894 6.532h-.681l-2.893-6.532h.748l2.5 5.674 2.52-5.674h.7Zm2.808 0h.691v6.532h-.691v-6.532Zm4.685 0h.691V23.9h3.657v.598h-4.348v-6.531Zm7.363 0h.69V23.9h3.658v.598h-4.348v-6.531Zm11.225 4.227-1.567-3.508-1.568 3.508h3.135Zm.253.56h-3.64l-.784 1.745h-.718l2.986-6.532h.682l2.985 6.532h-.727l-.784-1.745Zm4.866 1.568c-.445-.155-.788-.36-1.031-.616l.27-.532c.236.237.551.428.943.574.392.146.796.22 1.213.22.584 0 1.024-.108 1.316-.322.292-.216.438-.494.438-.836 0-.26-.079-.47-.238-.625a1.608 1.608 0 0 0-.583-.36 9.476 9.476 0 0 0-.961-.274 10.371 10.371 0 0 1-1.176-.36 1.952 1.952 0 0 1-.752-.527c-.207-.236-.312-.557-.312-.961 0-.33.088-.63.262-.901.174-.27.442-.486.802-.648.361-.162.809-.242 1.344-.242.373 0 .738.05 1.096.154.358.102.668.243.929.424l-.234.55a3.204 3.204 0 0 0-.877-.406 3.24 3.24 0 0 0-.914-.134c-.573 0-1.003.11-1.293.33a1.029 1.029 0 0 0-.433.854c0 .261.079.471.238.63.158.16.357.28.597.364.24.084.561.176.965.275.48.119.866.235 1.162.35.296.115.546.29.751.522.206.234.308.55.308.947 0 .33-.088.63-.266.902-.177.27-.449.485-.815.643-.368.16-.819.238-1.354.238-.485 0-.951-.077-1.395-.233Zm-162.873.328c-.018-1.208-.043-3.232-.068-4.417-.078-3.629.037-11 .037-11-.054-4.004 4.765-5.997 7.566-3.306 1.381 1.327 1.79 1.69 2.697 2.672.936 1.011 1.15 1.19 2.068 2.008.154.105.498.314.856-.018.987-.92 1.572-1.537 2.492-2.422 1.105-1.061 2.329-2.343 2.329-2.343 1.62-1.67 7.139-1.86 7.451 3.381l-1.833.071c-.94.037-1.44-.036-2.343-.867-.255-.234-.495-.23-.742.049-.803.876-1.253 1.335-2.009 2.247-.946 1.144-1.37 1.476-2.55 2.646-2.378 2.36-5.214 1.05-5.87.494-1.43-1.21-1.797-1.466-2.9-2.69-.83-.92-1.644-1.588-2.373-2.382-.283-.306-.89-.257-.884.402-.137 3.454-.09 7.461-.016 10.973.027 1.195.052 3.227.069 4.446l-3.977.056Zm72.569.112h-3.978v-9.69a3.978 3.978 0 0 1 3.978-3.978v13.668Zm6.919-15.09h-17.817V5.694h17.817v3.978ZM88.063 25.5c-3.053 0-6.092-1.199-8.54-3.484l-.05-.047c-3.37-3.37-2.743-7.81-2.945-11.728-.098-1.9-.017-3.372-.098-4.546h4.117c.01 1.522.004 3.002-.046 4.748-.095 3.381-.334 6.569 1.761 8.69 2.503 2.318 5.854 3.005 8.758 1.794 1.139-.521 3.142-1.747 3.987-4.146l3.752 1.321c-.994 2.822-3.166 5.116-6.118 6.458l-.051.023a11.637 11.637 0 0 1-4.527.917Zm-18.293-.84h-3.977v-9.588a3.978 3.978 0 0 1 3.977-3.978V24.66Z"/><path d="M94.781 15.563V5.695h3.978v5.89a3.978 3.978 0 0 1-3.978 3.978ZM154.928 5.49h-1.2V1.512h4.42v.758a3.22 3.22 0 0 1-3.22 3.22Zm-15.217 19.272h-3.978v-9.69a3.978 3.978 0 0 1 3.978-3.978v13.668Zm6.92-15.09h-17.818V5.694h17.818v3.978Zm11.197 15.09h-3.978V7.263h3.978v17.499Z"/></g><defs><clipPath id="a"><path fill="#fff" d="M0 0h213v26H0z"/></clipPath></defs></svg>
